<?xml version="1.0" standalone="no"?>
<!DOCTYPE svg PUBLIC "-//W3C//DTD SVG 1.1//EN" "http://www.w3.org/Graphics/SVG/1.1/DTD/svg11.dtd">
<svg xmlns="http://www.w3.org/2000/svg" xmlns:xlink="http://www.w3.org/1999/xlink" version="1.1" id="Layer_1" x="0px" y="0px" viewBox="0 0 225 40" style="enable-background:new 0 0 225 40;" xml:space="preserve" width="225" height="40">
<style type="text/css">
	.st0{fill-rule:evenodd;clip-rule:evenodd;fill:#062846;}
	.st1{fill:#062846;}
	.st2{fill-rule:evenodd;clip-rule:evenodd;fill:#FF492C;}
</style>
<g>
	<path class="st0" d="M87.2,9.7h-6.9v18.7h-4.6V9.7h-6.8V5.9h18.4V9.7z M110.1,26.7c-1.1,1.3-2.6,2-4.6,2c-1.8,0-3.2-0.5-4.1-1.5   c-0.9-1-1.4-2.5-1.4-4.5V11.7h4.5v10.8c0,1.7,0.8,2.6,2.4,2.6c1.5,0,2.6-0.5,3.1-1.6V11.7h4.5v16.6h-4.2L110.1,26.7z M97.9,15.9   c-0.6-0.1-1.1-0.1-1.6-0.1c-1.7,0-2.8,0.6-3.3,1.7v10.9h-4.5V11.7h4.2l0.1,2c0.9-1.5,2.1-2.3,3.7-2.3c0.5,0,1,0.1,1.4,0.2   L97.9,15.9z"/>
	<path class="st0" d="M144.2,25.1c0.8,0,1.5-0.2,2-0.7c0.5-0.4,0.8-1,0.8-1.8h4.2c0,1.1-0.3,2.2-0.9,3.1c-0.6,0.9-1.4,1.7-2.5,2.2   c-1.1,0.5-2.2,0.8-3.5,0.8c-2.4,0-4.3-0.8-5.7-2.3c-1.4-1.5-2.1-3.6-2.1-6.3v-0.3c0-2.6,0.7-4.6,2.1-6.1c1.4-1.5,3.3-2.3,5.6-2.3   c2.1,0,3.8,0.6,5,1.8c1.3,1.2,1.9,2.8,1.9,4.7H147c0-0.9-0.3-1.6-0.8-2.1c-0.5-0.5-1.2-0.8-2-0.8c-1,0-1.8,0.4-2.4,1.1   c-0.5,0.8-0.8,2-0.8,3.7v0.5c0,1.7,0.3,2.9,0.8,3.7C142.4,24.7,143.2,25.1,144.2,25.1z"/>
	<path class="st0" d="M158.2,13.5c1.2-1.4,2.7-2.1,4.5-2.1c3.6,0,5.5,2.1,5.5,6.3v10.7h-4.5V17.8c0-1-0.2-1.7-0.6-2.1   c-0.4-0.5-1.1-0.7-2.1-0.7c-1.3,0-2.3,0.5-2.8,1.5v11.9h-4.5V4.7h4.5V13.5L158.2,13.5z"/>
	<path class="st1" d="M194.2,4.7h-4.5v23.6h4.5V4.7z"/>
	<path class="st0" d="M203.9,25.3c0.7,0,1.3-0.1,1.8-0.4c0.6-0.3,1-0.7,1.2-1.2v-2.9h-1.7c-2.2,0-3.4,0.8-3.6,2.3l0,0.3   c0,0.6,0.2,1,0.6,1.4C202.6,25.1,203.2,25.3,203.9,25.3z M207.6,28.3c-0.2-0.4-0.4-0.9-0.4-1.5c-1.1,1.2-2.5,1.8-4.2,1.8   c-1.6,0-3-0.5-4.1-1.4c-1.1-0.9-1.6-2.1-1.6-3.6c0-1.8,0.7-3.1,2-4.1c1.3-0.9,3.2-1.4,5.7-1.4h2.1v-0.9c0-0.8-0.2-1.4-0.6-1.8   c-0.4-0.5-1-0.7-1.9-0.7c-0.8,0-1.3,0.2-1.8,0.5c-0.4,0.4-0.6,0.8-0.6,1.5h-4.5c0-1,0.3-1.9,0.9-2.7c0.6-0.8,1.4-1.5,2.5-1.9   c1.1-0.5,2.3-0.7,3.7-0.7c2.1,0,3.7,0.5,4.9,1.5c1.2,1,1.8,2.5,1.8,4.4v7.2c0,1.6,0.2,2.8,0.7,3.6v0.3   C212.1,28.3,207.6,28.3,207.6,28.3z"/>
	<path class="st0" d="M224.2,15.9c-0.6-0.1-1.1-0.1-1.6-0.1c-1.7,0-2.8,0.6-3.3,1.7v10.9h-4.5V11.7h4.2l0.1,2   c0.9-1.5,2.1-2.3,3.7-2.3c0.5,0,1,0.1,1.4,0.2L224.2,15.9z"/>
	<path class="st0" d="M129.8,22.5c0-0.9-0.3-1.5-0.9-2c-0.6-0.5-1.7-1-3.3-1.5c-1.6-0.5-2.9-1-3.8-1.5c-2.6-1.4-3.8-3.2-3.8-5.6   c0-1.2,0.3-2.3,1-3.2c0.7-1,1.7-1.7,3-2.2c1.3-0.5,2.7-0.8,4.3-0.8c1.6,0,3,0.3,4.3,0.9c1.3,0.6,2.2,1.4,2.9,2.5   c0.7,1.1,1,2.3,1,3.6h-4.6c0-1-0.3-1.8-1-2.4c-0.6-0.6-1.6-0.9-2.7-0.9c-1.1,0-2,0.2-2.6,0.7c-0.6,0.5-0.9,1.1-0.9,1.9   c0,0.7,0.4,1.3,1.1,1.8c0.7,0.5,1.8,1,3.3,1.4c2.6,0.8,4.6,1.8,5.8,2.9c1.2,1.2,1.8,2.6,1.8,4.4c0,1.9-0.7,3.5-2.2,4.6   c-1.5,1.1-3.5,1.7-6,1.7c-1.7,0-3.3-0.3-4.7-0.9c-1.4-0.6-2.5-1.5-3.3-2.6c-0.7-1.1-1.1-2.4-1.1-3.8h4.7c0,2.5,1.5,3.7,4.5,3.7   c1.1,0,2-0.2,2.6-0.7C129.5,23.9,129.8,23.3,129.8,22.5z"/>
	<path class="st2" d="M178.8,14.5c3,0,5.5,2.5,5.5,5.5c0,3-2.5,5.5-5.5,5.5c-3,0-5.5-2.5-5.5-5.5C173.2,17,175.7,14.5,178.8,14.5z    M178.8,28.6c4.8,0,8.6-3.8,8.6-8.6s-3.9-8.6-8.6-8.6c-4.8,0-8.6,3.8-8.6,8.6S174,28.6,178.8,28.6z M178.8,14.9   c-2.8,0-5.2,2.3-5.2,5.1s2.3,5.1,5.2,5.1c2.8,0,5.2-2.3,5.2-5.1S181.6,14.9,178.8,14.9z M184.3,20c0-3-2.5-5.5-5.5-5.5   c-3,0-5.5,2.5-5.5,5.5c0,3,2.5,5.5,5.5,5.5C181.8,25.5,184.3,23.1,184.3,20z"/>
	<path class="st2" d="M182,25.2l1-0.8l1.2,1.5l1,1.3c0.2,0.2,0.6,0.3,0.8,0.1l0,0c0.1-0.1,0.3-0.1,0.4-0.1c0.2,0,0.3,0.1,0.4,0.2   l5,6.3c0.2,0.2,0.2,0.6-0.1,0.8l-2,1.5c-0.1,0.1-0.3,0.1-0.4,0.1c-0.2,0-0.3-0.1-0.4-0.2l-5-6.3c-0.2-0.2-0.2-0.6,0.1-0.8l0,0   c0.1-0.1,0.2-0.2,0.2-0.4c0-0.2,0-0.3-0.1-0.4l-1-1.2L182,25.2z M187.5,29l-0.3,0.2l2.6,3.3l0.3-0.2L187.5,29z"/>
	<path class="st2" d="M174.6,18c0.3,2.9,2,5.4,4.6,6.6c-1.6-0.1-3-0.9-3.9-2.2C174.4,21.2,174.2,19.5,174.6,18z"/>
	<path class="st2" d="M27.3,0L41,6.4l13.7,6.4l0,0l0,0c3.2,4.8,1.5,8.4,0.3,12c0.4,0.4,0.6,0.9,0.6,1.5c0,0.9-0.6,1.7-1.5,2   c-0.3,2.4,0.3,5.1,3.2,8.3c-1.7,1.3-3.1,1.8-4.3,1.5c-3.4-1.7-2.5-5.9-1.1-10.4c-0.3-0.4-0.5-0.8-0.5-1.3c0-0.8,0.5-1.5,1.1-1.9   c0.1-0.1,0.2-0.1,0.3-0.1c1.2-4.1,1.9-8.1-0.6-10.4L41,19.2l-13.7,6.4l-11.1-5.2l-1.5-0.7l-1-0.5L0,12.8l13.7-6.4L27.3,0z    M25.6,12.8C25.6,12.8,25.6,12.8,25.6,12.8L25.6,12.8z"/>
	<path class="st0" d="M13.7,26.4l1,0.5l1.5,0.7l11.1,5.2L41,26.4l6.5-3l1-0.5v-5.8L41,20.6l-13.7,6.4l-11.1-5.2L14.7,21l-1-0.5   l-7.4-3.5v5.8l1,0.5L13.7,26.4z"/>
	<path class="st0" d="M27.3,40l21.1-9.9v-5.8l-21.1,9.9c-7-3.3-14.1-6.6-21.1-9.9v5.8C13.3,33.4,20.3,36.7,27.3,40z"/>
</g>
</svg>